<svg width="50" height="50" viewBox="0 0 50 50" fill="none" xmlns="http://www.w3.org/2000/svg">
<path d="M1 18.0588L2.73283 16.8101M48.3934 18.0588L46.5459 16.8101M2.73283 16.8101L24.6393 1L46.5459 16.8101M2.73283 16.8101V42.6471H46.5459V16.8101" stroke="#FE5555" stroke-width="2" stroke-linecap="round" stroke-linejoin="round"/>
<path d="M28.5738 14.2941C28.5738 16.1695 27.0972 17.6471 25.3279 17.6471C23.5585 17.6471 22.082 16.1695 22.082 14.2941C22.082 12.4187 23.5585 10.9412 25.3279 10.9412C27.0972 10.9412 28.5738 12.4187 28.5738 14.2941Z" stroke="#FE5555" stroke-width="2"/>
<mask id="path-3-inside-1" fill="white">
<path d="M32.7869 29.0588C32.7869 28.5065 33.2346 28.0588 33.7869 28.0588H41.8852C42.4375 28.0588 42.8852 28.5065 42.8852 29.0588V43.1176H32.7869V29.0588Z"/>
</mask>
<path d="M42.8852 43.1176V45.1176H44.8852V43.1176H42.8852ZM32.7869 43.1176H30.7869V45.1176H32.7869V43.1176ZM33.7869 30.0588H41.8852V26.0588H33.7869V30.0588ZM40.8852 29.0588V43.1176H44.8852V29.0588H40.8852ZM42.8852 41.1176H32.7869V45.1176H42.8852V41.1176ZM34.7869 43.1176V29.0588H30.7869V43.1176H34.7869ZM41.8852 30.0588C41.333 30.0588 40.8852 29.6111 40.8852 29.0588H44.8852C44.8852 27.402 43.5421 26.0588 41.8852 26.0588V30.0588ZM33.7869 26.0588C32.13 26.0588 30.7869 27.402 30.7869 29.0588H34.7869C34.7869 29.6111 34.3392 30.0588 33.7869 30.0588V26.0588Z" fill="#FE5555" mask="url(#path-3-inside-1)"/>
<path d="M12.2131 28.8235L26.0492 28.8235V36L12.2131 36L12.2131 28.8235Z" stroke="#FE5555" stroke-width="2" stroke-linecap="round" stroke-linejoin="round"/>
<line x1="34.3043" y1="45.7983" x2="43.0912" y2="45.7983" stroke="#FE5555" stroke-width="2" stroke-linecap="round"/>
<line x1="30.6322" y1="48.8571" x2="48.1404" y2="48.8571" stroke="#FE5555" stroke-width="2" stroke-linecap="round"/>
</svg>
